<svg xmlns="http://www.w3.org/2000/svg">
    <g id="region-estearth">
        <a href="/mir-wiki/map/ridgeback/estearth" title="Estearth">
            <polygon points="230,70 240,70 240,90 230,90 230,130 210,130 210,150 230,150 220,170 195,185 180,180 168,184 161,176 164,164 156,156 159,145 180,140 190,120 190,115 205,100 205,90 197,80" />
        </a>
    </g>
    <g id="region-ashvale">
        <a href="/mir-wiki/map/ridgeback/ashvale" title="Ashvale">
            <polygon points="195,185 200,216 180,218 157,203 140,203 130,175 105,147 94,127 113,127 145,138 158,145 156,156 164,164 161,176 168,184 180,180" />
        </a>
    </g>
    <g id="region-kingsooth">
        <a href="/mir-wiki/map/ridgeback/kingsooth" title="Kingsooth">
            <polygon points="94,127 113,127 145,138 158,145 180,140 190,120 190,115 205,100 197,80 110,90 92,103" />
        </a>
    </g>
</svg>