<svg id="layer-regions" class="image-features" xmlns="http://www.w3.org/2000/svg" viewBox="0 0 247 333">
    <g id="region-snow-plains">
        <a href="/mir-wiki/map/snow_plains">
            <polygon points="36,4 46,14 58,20 79,28 73,36 82,32 80,46 90,60 95,58 96,69 88,76 84,84 78,88 62,86 49,110 35,122 28,124 22,118 15,117 11,109 13,105 8,98 16,83 7,80 4,72 8,72 9,62 5,56 10,48 7,41 14,39 13,32 32,23" />
        </a>
    </g>
    <g id="region-hillands">
        <a href="/mir-wiki/map/hillands">
            <polygon points="96,69 88,76 84,84 78,88 62,86 49,110 35,122 38,122 38,126 34,128 38,134 34,136 38,140 38,146 36,146 36,154 40,154 43,151 48,151 45,158 53,162 53,168 61,170 61,174 55,178 64,186 70,187 62,191 68,192 69,199 74,196 77,204 81,202 85,206 90,204 94,198 103,197 108,194 108,190 105,188 105,182 116,178 121,176 126,178 130,176 121,170 110,153 95,128 90,112 92,102 90,95 96,76" />
        </a>
    </g>
    <g id="region-roke">
        <a href="/mir-wiki/map/roke">
            <polygon points="130,176 126,178 121,176 116,178 105,182 105,188 108,190 108,194 103,197 94,198 90,204 90,208 88,209 95,218 94,221 88,224 92,233 98,233 100,237 103,234 104,239 108,240 105,246 108,248 108,251 105,251 105,257 101,258 106,260 104,265 108,269 112,270 117,274 116,279 119,282 112,290 116,298 112,299 122,302 118,309 124,315 124,319 126,317 130,318 142,308 155,305 152,297 156,287 150,267 146,231 147,223 144,214 142,204 140,194" />
        </a>
    </g>
    <g id="region-ashvale">
        <a href="/mir-wiki/map/ashvale">
            <polygon points="142,204 160,205 169,214 182,219 192,220 202,217 202,214 198,209 201,206 198,202 200,199 194,190 197,190 194,185 191,184 181,179 169,186 163,182 161,175 166,165 158,158 156,150 159,144 152,138 143,138 114,128 95,128 110,153 121,170 130,176 140,194" />
        </a>
    </g>
    <g id="region-wetlands">
        <a href="/mir-wiki/map/wetlands">
            <polygon points="142,204 144,214 147,223 146,231 150,267 156,287 160,280 166,279 170,272 178,273 186,266 193,265 194,262 200,256 200,246 206,240 204,236 208,228 204,226 206,219 202,217 192,220 182,219 169,214 160,205" />
        </a>
    </g>
    <g id="region-sandflats">
        <a href="/mir-wiki/map/sandflats">
            <polygon points="156,287 152,297 155,305 142,308 130,318 136,335 138,334 138,329 149,329 148,325 154,326 156,322 162,326 166,326 171,322 174,324 178,312 182,315 191,313 192,306 189,301 189,296 194,295 196,287 190,282 194,278 202,280 203,279 203,266 202,263 204,260 200,256 194,262 193,265 186,266 178,273 170,272 166,279 160,280" />
        </a>
    </g>
    <g id="region-estearth">
        <a href="/mir-wiki/map/estearth">
            <polygon points="159,144 156,150 156,150 158,158 166,165 161,175 163,182 169,186 181,179 191,184 194,185 204,181 203,175 212,176 211,172 215,172 215,168 223,172 226,163 232,162 230,160 232,152 226,154 222,150 222,157 215,157 214,155 210,154 212,146 209,146 210,144 206,144 208,140 202,137 204,133 208,135 207,128 213,126 213,131 226,130 224,124 232,121 230,106 226,104 226,102 231,99 228,99 223,95 222,89 224,86 226,91 235,91 241,82 242,72 232,68 198,80 206,90 206,101 192,115 191,122 184,133 178,140 163,141" />
        </a>
    </g>
    <g id="region-kingsooth">
        <a href="/mir-wiki/map/kingsooth">
            <polygon points="92,102 90,112 95,128 114,128 143,138 152,138 159,144 163,141 178,140 184,133 191,122 192,115 206,101 206,90 198,80 183,84 124,86 109,88 104,97" />
        </a>
    </g>
    <g id="region-frosthelm">
        <a href="/mir-wiki/map/frosthelm">
            <polygon points="95,58 96,69 96,76 90,95 92,102 104,97 109,88 124,86 183,84 198,80 232,68 226,66 225,59 222,60 220,55 214,52 211,56 204,54 204,49 206,44 197,41 194,35 190,40 184,37 174,42 172,38 167,35 160,42 153,36 153,32 146,34 148,41 144,43 140,37 133,42 130,39 120,38 119,40 116,34 108,37 105,35 102,38 112,45 102,46" />
        </a>
    </g>
</svg>
